<svg xmlns="http://www.w3.org/2000/svg" height="800" width="1200" fill="none" viewBox="-16.05 -9.675175 139.1 58.05105" style="background-color: #00DD00"><path fill="#FFF" d="M64.7464 18.9226h-3.3362v9.8363h3.3362zm-12.0345 1.6196c0-.1649.0075-9.1841.015-10.811h-3.3363v10.8635c.015 2.1817.8697 4.2284 2.4066 5.7728.165.1725.3449.3374.5323.4874 1.522 1.2745 3.3738 1.9193 5.503 1.9193h1.9193v-3.3288h-2.1442c-2.699-.0075-4.8957-2.2042-4.8957-4.9032zm34.999-6.3723c-1.1396-1.1921-2.5866-1.6719-4.161-1.6719-1.6194 0-3.0664.5248-4.176 1.6719-.8247.8472-1.3045 1.9343-1.3045 1.9343s-.4798-1.0871-1.3045-1.9343c-1.1171-1.1546-2.5565-1.6719-4.176-1.6719-1.5744 0-3.0138.4798-4.1609 1.6719-1.2296 1.2895-1.8443 3.1413-1.8443 5.2405 0 3.6212 0 8.202-.0075 9.3191h3.3137c.0075-1.2745.045-6.9874.045-9.3191 0-2.8864 1.5744-3.9135 3.1264-3.9135.3448 0 .6897.06 1.0196.1724.6672.1949 1.3945.8472 1.7169 1.372.3073.5023.5098 1.0871.5098 2.2717v9.4165h3.5087V19.313c0-1.1846.2024-1.7694.5098-2.2717.3224-.5248 1.0496-1.1771 1.7169-1.372.3298-.1124.6747-.1724 1.0196-.1724 1.5519 0 3.1263 1.0271 3.1263 3.9135 0 2.3242.0375 8.0446.045 9.3191h3.3138c0-1.1171-.0075-5.6904-.0075-9.3191.015-2.0992-.5923-3.951-1.8293-5.2405zM107 20.4825c0-2.1892-.817-3.921-2.241-5.4579-1.44-1.5595-3.606-2.5266-5.8482-2.5266-2.3766 0-4.4233.9146-6.0577 2.639-1.4695 1.5444-2.0543 3.3888-2.0543 5.6604 0 2.2792.8997 4.4234 2.5191 5.8778 1.7019 1.522 3.4637 2.3092 6.0128 2.3092 2.1743 0 4.4463-.8397 5.9673-1.9493l-2.159-2.1592c-1.064.7422-2.451 1.2071-3.7259 1.2071-1.8368 0-3.9135-1.1696-4.7607-2.7215l12.3106-2.1667c.015-.21.037-.5023.037-.7123zm-12.7-.2399c.0375-2.4291 1.3945-4.7082 4.6408-4.7082 2.8642 0 4.2132 1.9043 4.5212 3.4187L94.3 20.565zm-31.2178-3.2991c-2.0018 0-2.5041-1.1546-2.5041-2.2342s.5923-2.2341 2.5041-2.2341c1.9118 0 2.5041 1.1545 2.5041 2.2341 0 1.0796-.5023 2.2342-2.5041 2.2342zm-46.2345 2.4066c0-1.3794 1.1245-2.504 2.504-2.504s2.5041 1.1171 2.5041 2.504c0 1.3795-1.1246 2.5041-2.5041 2.5041-1.3795 0-2.504-1.1171-2.504-2.5041zm6.7461-3.7108l6.0053-3.4712c1.1846-.6823 1.4095-2.3017.4498-3.2838-1.8818-1.9268-4.2809-3.3438-6.9799-4.0335-1.3345-.3374-2.6315.6523-2.6315 2.0317v6.9425c.0075 1.6119 1.7544 2.624 3.1563 1.8143zm-5.3365-1.8143V6.89c0-1.372-1.297-2.369-2.6315-2.0317-2.6916.6898-5.0907 2.1067-6.98 4.0335-.9596.9747-.7347 2.5941.4499 3.2838l6.0052 3.4712c1.4095.8022 3.1564-.2099 3.1564-1.8218zm6.4309 7.3471l6.0128 3.4712c1.1845.6823 2.699.0675 3.0663-1.2445a14.9416 14.9416 0 00.5548-4.041c0-1.402-.1949-2.7515-.5548-4.041-.3673-1.3196-1.8818-1.9268-3.0663-1.2446l-6.0128 3.4712c-1.402.8022-1.402 2.819 0 3.6287zm-9.5736 1.8892l-6.0053 3.4712c-1.1845.6822-1.4094 2.3016-.4498 3.2838 1.8818 1.9268 4.2809 3.3438 6.9799 4.0335 1.3345.3374 2.6316-.6523 2.6316-2.0318v-6.9424c-.015-1.6119-1.7619-2.6165-3.1564-1.8143zm-1.0939-5.5253l-6.0128-3.4713c-1.1846-.6822-2.699-.0674-3.0664 1.2446a14.9421 14.9421 0 00-.5548 4.041c0 1.402.195 2.7515.5548 4.041.3674 1.3195 1.8818 1.9268 3.0664 1.2445l6.0128-3.4712c1.3944-.8022 1.3944-2.8189 0-3.6286zm6.4266 7.3471v6.9425c0 1.372 1.297 2.3691 2.6315 2.0317 2.6915-.6897 5.0906-2.1067 6.9799-4.0335.9597-.9746.7347-2.594-.4498-3.2838l-6.0053-3.4712c-1.4095-.8097-3.1563.1949-3.1563 1.8143z"/><path fill="#FFF" d="M19.3503 38.7007C8.6668 38.7007 0 30.0414 0 19.3503 0 8.6668 8.6668 0 19.3503 0c10.6911 0 19.3579 8.6668 19.3504 19.3503 0 10.6836-8.6593 19.3504-19.3504 19.3504zm17.1619-19.3505c0-9.4615-7.6996-17.1537-17.1611-17.1537-9.4615 0-17.1537 7.6922-17.1537 17.1537 0 9.4615 7.6922 17.1611 17.1537 17.1611 9.4615 0 17.1611-7.6996 17.1611-17.1611z" clip-rule="evenodd" fill-rule="evenodd"/></svg>